<svg width="26" height="26" viewBox="0 0 26 26" fill="none" xmlns="http://www.w3.org/2000/svg">
<path fill-rule="evenodd" clip-rule="evenodd" d="M11.2311 2.75995L11.0431 4.0353C10.8658 5.23773 10.0608 6.13651 9.17701 6.64452C8.30117 7.14795 7.1708 7.35085 6.09103 6.92903L4.73583 6.39962L2.98934 9.33865L4.07757 10.1664C5.02996 10.8909 5.40131 12.0061 5.40131 13C5.40131 13.9938 5.02996 15.109 4.07757 15.8335L2.98934 16.6613L4.73583 19.6003L6.08308 19.074C7.17404 18.6478 8.31001 18.8661 9.17965 19.3613C10.0642 19.865 10.8653 20.7587 11.0419 21.9568L11.2311 23.24H14.776L14.964 21.9646C15.1413 20.7622 15.9463 19.8634 16.8301 19.3554C17.7059 18.852 18.8363 18.6491 19.9161 19.0709L21.2713 19.6003L23.0178 16.6613L21.9296 15.8335C20.9772 15.109 20.6058 13.9938 20.6058 13C20.6058 12.0061 20.9772 10.8909 21.9296 10.1664L23.0178 9.33865L21.2713 6.39962L19.924 6.92592C18.8331 7.35212 17.6971 7.13381 16.8275 6.6386C15.9429 6.13488 15.1418 5.24124 14.9652 4.04313L14.776 2.75995H11.2311ZM8.78711 1.78565C8.91898 0.820278 9.76072 0.199951 10.635 0.199951H15.3722C16.2464 0.199951 17.0882 0.820328 17.22 1.78576L17.4978 3.66977C17.5329 3.90793 17.7172 4.19932 18.0942 4.41398C18.4479 4.6154 18.7722 4.62748 18.9926 4.54141L20.9065 3.79374L20.926 3.78682C21.6832 3.51899 22.689 3.74574 23.1817 4.60333L25.5524 8.59283L25.5603 8.60685C25.9994 9.38993 25.8334 10.4079 25.0813 10.9854L25.0767 10.989L23.4794 12.2039C23.3162 12.3281 23.1658 12.5921 23.1658 13C23.1658 13.4078 23.3162 13.6718 23.4794 13.796L25.0813 15.0145C25.8334 15.592 25.9994 16.61 25.5603 17.3931L25.5524 17.4071L23.1817 21.3966C22.7096 22.218 21.7263 22.5181 20.8975 22.2026L20.8871 22.1987L18.9846 21.4554C18.7607 21.3679 18.4435 21.3808 18.1058 21.5749C17.7225 21.7952 17.5325 22.0944 17.4966 22.338L17.22 24.2141C17.0882 25.1796 16.2464 25.8 15.3722 25.8H10.635C9.76072 25.8 8.91898 25.1796 8.78711 24.2143L8.50936 22.3301C8.47425 22.092 8.28988 21.8006 7.91291 21.5859C7.5592 21.3845 7.23488 21.3724 7.01456 21.4585L5.10067 22.2062L5.08109 22.2131C4.32395 22.4809 3.31819 22.2542 2.82545 21.3966L0.454679 17.4071L0.446817 17.393C0.00770942 16.61 0.173752 15.592 0.925774 15.0145L0.930438 15.0109L2.52774 13.7959C2.69095 13.6718 2.84135 13.4078 2.84135 13C2.84135 12.5921 2.69095 12.3281 2.52774 12.204L0.925766 10.9854C0.21333 10.4383 -0.0407737 9.41567 0.465247 8.57505L2.82547 4.60322C3.29758 3.78186 4.28084 3.48183 5.10959 3.79728L5.12002 3.80125L7.02252 4.54452C7.24645 4.632 7.56365 4.61912 7.90129 4.42504C8.28465 4.20468 8.47461 3.90547 8.51051 3.66194L8.78711 1.78565ZM7.11303 12.9999C7.11303 9.75204 9.75308 7.11195 13.0009 7.11195C16.2488 7.11195 18.8888 9.75204 18.8888 12.9999C18.8888 16.2479 16.2488 18.8879 13.0009 18.8879C9.75308 18.8879 7.11303 16.2479 7.11303 12.9999ZM13.0009 9.67195C11.1669 9.67195 9.67299 11.1659 9.67299 12.9999C9.67299 14.834 11.1669 16.3279 13.0009 16.3279C14.835 16.3279 16.3289 14.834 16.3289 12.9999C16.3289 11.1659 14.835 9.67195 13.0009 9.67195Z" fill="#B795E1"/>
</svg>
