<svg width="26" height="26" viewBox="0 0 26 26" fill="none" xmlns="http://www.w3.org/2000/svg">
<path fill-rule="evenodd" clip-rule="evenodd" d="M13.0002 2.75995C7.3448 2.75995 2.7602 7.34456 2.7602 13C2.7602 18.6553 7.3448 23.24 13.0002 23.24C18.6556 23.24 23.2402 18.6553 23.2402 13C23.2402 7.34456 18.6556 2.75995 13.0002 2.75995ZM0.200195 13C0.200195 5.93071 5.93095 0.199951 13.0002 0.199951C20.0694 0.199951 25.8002 5.93071 25.8002 13C25.8002 20.0692 20.0694 25.8 13.0002 25.8C5.93095 25.8 0.200195 20.0692 0.200195 13Z" fill="#7BAB47"/>
<path fill-rule="evenodd" clip-rule="evenodd" d="M20.8385 8.43568C21.2865 8.79395 21.3456 9.43128 20.9706 9.8592L14.3593 17.4023C14.1585 17.6313 13.8621 17.7638 13.5494 17.7642C13.2367 17.7645 12.9399 17.6327 12.7386 17.4042L9.43276 13.6505C9.05664 13.2234 9.11417 12.586 9.56125 12.2267C10.0083 11.8674 10.6757 11.9223 11.0518 12.3494L13.5462 15.1817L19.3483 8.5618C19.7234 8.13388 20.3906 8.07741 20.8385 8.43568ZM16.861 7.4304C17.3075 7.79031 17.3641 8.42786 16.9873 8.85439L14.2293 11.9765C13.8526 12.403 13.1851 12.457 12.7386 12.0971C12.2921 11.7372 12.2356 11.0997 12.6123 10.6731L15.3703 7.55102C15.7471 7.12448 16.4145 7.07048 16.861 7.4304ZM4.82176 12.2237C5.27059 11.8664 5.93765 11.9243 6.31168 12.353L9.61762 16.1425C9.99165 16.5712 9.93102 17.2084 9.48219 17.5657C9.03336 17.923 8.3663 17.8651 7.99227 17.4363L4.68633 13.6469C4.3123 13.2181 4.37293 12.5809 4.82176 12.2237Z" fill="#7BAB47"/>
</svg>
