<svg width="55" height="55" viewBox="0 0 55 55" fill="none" xmlns="http://www.w3.org/2000/svg">
<path d="M17.6 41.25L27.5 31.35L37.4 41.25L41.25 37.4L31.35 27.5L41.25 17.6L37.4 13.75L27.5 23.65L17.6 13.75L13.75 17.6L23.65 27.5L13.75 37.4L17.6 41.25ZM27.5 55C23.6958 55 20.1208 54.2777 16.775 52.833C13.4292 51.3883 10.5187 49.4294 8.04375 46.9562C5.56875 44.4831 3.60983 41.5727 2.167 38.225C0.72417 34.8773 0.00183681 31.3023 3.48101e-06 27.5C-0.00182985 23.6977 0.720503 20.1227 2.167 16.775C3.6135 13.4273 5.57242 10.5169 8.04375 8.04375C10.5151 5.57058 13.4255 3.61167 16.775 2.167C20.1245 0.722333 23.6995 0 27.5 0C31.3005 0 34.8755 0.722333 38.225 2.167C41.5745 3.61167 44.4849 5.57058 46.9562 8.04375C49.4276 10.5169 51.3874 13.4273 52.8357 16.775C54.284 20.1227 55.0055 23.6977 55 27.5C54.9945 31.3023 54.2721 34.8773 52.833 38.225C51.3938 41.5727 49.4349 44.4831 46.9562 46.9562C44.4776 49.4294 41.5671 51.3892 38.225 52.8357C34.8828 54.2822 31.3078 55.0037 27.5 55ZM27.5 49.5C33.6416 49.5 38.8437 47.3687 43.1062 43.1062C47.3687 38.8437 49.5 33.6417 49.5 27.5C49.5 21.3583 47.3687 16.1562 43.1062 11.8937C38.8437 7.63125 33.6416 5.5 27.5 5.5C21.3583 5.5 16.1562 7.63125 11.8937 11.8937C7.63125 16.1562 5.5 21.3583 5.5 27.5C5.5 33.6417 7.63125 38.8437 11.8937 43.1062C16.1562 47.3687 21.3583 49.5 27.5 49.5Z" fill="white"/>
</svg>
